<svg width="71" height="15" viewBox="0 0 71 15" fill="none" xmlns="http://www.w3.org/2000/svg">
<path d="M24.48 4.02V11H23.08V8.03H20.09V11H18.69V4.02H20.09V6.89H23.08V4.02H24.48ZM25.498 8.21C25.498 7.65 25.608 7.15333 25.828 6.72C26.0546 6.28667 26.358 5.95333 26.738 5.72C27.1246 5.48667 27.5546 5.37 28.028 5.37C28.4413 5.37 28.8013 5.45333 29.108 5.62C29.4213 5.78667 29.6713 5.99667 29.858 6.25V5.46H31.268V11H29.858V10.19C29.678 10.45 29.428 10.6667 29.108 10.84C28.7946 11.0067 28.4313 11.09 28.018 11.09C27.5513 11.09 27.1246 10.97 26.738 10.73C26.358 10.49 26.0546 10.1533 25.828 9.72C25.608 9.28 25.498 8.77667 25.498 8.21ZM29.858 8.23C29.858 7.89 29.7913 7.6 29.658 7.36C29.5246 7.11333 29.3446 6.92667 29.118 6.8C28.8913 6.66667 28.648 6.6 28.388 6.6C28.128 6.6 27.888 6.66333 27.668 6.79C27.448 6.91667 27.268 7.10333 27.128 7.35C26.9946 7.59 26.928 7.87667 26.928 8.21C26.928 8.54333 26.9946 8.83667 27.128 9.09C27.268 9.33667 27.448 9.52667 27.668 9.66C27.8946 9.79333 28.1346 9.86 28.388 9.86C28.648 9.86 28.8913 9.79667 29.118 9.67C29.3446 9.53667 29.5246 9.35 29.658 9.11C29.7913 8.86333 29.858 8.57 29.858 8.23ZM34.0353 6.26C34.2153 6.00667 34.462 5.79667 34.7753 5.63C35.0953 5.45667 35.4586 5.37 35.8653 5.37C36.3386 5.37 36.7653 5.48667 37.1453 5.72C37.532 5.95333 37.8353 6.28667 38.0553 6.72C38.282 7.14667 38.3953 7.64333 38.3953 8.21C38.3953 8.77667 38.282 9.28 38.0553 9.72C37.8353 10.1533 37.532 10.49 37.1453 10.73C36.7653 10.97 36.3386 11.09 35.8653 11.09C35.4586 11.09 35.0986 11.0067 34.7853 10.84C34.4786 10.6733 34.2286 10.4633 34.0353 10.21V13.64H32.6353V5.46H34.0353V6.26ZM36.9653 8.21C36.9653 7.87667 36.8953 7.59 36.7553 7.35C36.622 7.10333 36.442 6.91667 36.2153 6.79C35.9953 6.66333 35.7553 6.6 35.4953 6.6C35.242 6.6 35.002 6.66667 34.7753 6.8C34.5553 6.92667 34.3753 7.11333 34.2353 7.36C34.102 7.60667 34.0353 7.89667 34.0353 8.23C34.0353 8.56333 34.102 8.85333 34.2353 9.1C34.3753 9.34667 34.5553 9.53667 34.7753 9.67C35.002 9.79667 35.242 9.86 35.4953 9.86C35.7553 9.86 35.9953 9.79333 36.2153 9.66C36.442 9.52667 36.622 9.33667 36.7553 9.09C36.8953 8.84333 36.9653 8.55 36.9653 8.21ZM40.8127 6.26C40.9927 6.00667 41.2393 5.79667 41.5527 5.63C41.8727 5.45667 42.236 5.37 42.6427 5.37C43.116 5.37 43.5427 5.48667 43.9227 5.72C44.3093 5.95333 44.6127 6.28667 44.8327 6.72C45.0593 7.14667 45.1727 7.64333 45.1727 8.21C45.1727 8.77667 45.0593 9.28 44.8327 9.72C44.6127 10.1533 44.3093 10.49 43.9227 10.73C43.5427 10.97 43.116 11.09 42.6427 11.09C42.236 11.09 41.876 11.0067 41.5627 10.84C41.256 10.6733 41.006 10.4633 40.8127 10.21V13.64H39.4127V5.46H40.8127V6.26ZM43.7427 8.21C43.7427 7.87667 43.6727 7.59 43.5327 7.35C43.3993 7.10333 43.2193 6.91667 42.9927 6.79C42.7727 6.66333 42.5327 6.6 42.2727 6.6C42.0193 6.6 41.7793 6.66667 41.5527 6.8C41.3327 6.92667 41.1527 7.11333 41.0127 7.36C40.8793 7.60667 40.8127 7.89667 40.8127 8.23C40.8127 8.56333 40.8793 8.85333 41.0127 9.1C41.1527 9.34667 41.3327 9.53667 41.5527 9.67C41.7793 9.79667 42.0193 9.86 42.2727 9.86C42.5327 9.86 42.7727 9.79333 42.9927 9.66C43.2193 9.52667 43.3993 9.33667 43.5327 9.09C43.6727 8.84333 43.7427 8.55 43.7427 8.21ZM51.34 8.11C51.34 8.31 51.3267 8.49 51.3 8.65H47.25C47.2833 9.05 47.4233 9.36333 47.67 9.59C47.9167 9.81667 48.22 9.93 48.58 9.93C49.1 9.93 49.47 9.70667 49.69 9.26H51.2C51.04 9.79333 50.7333 10.2333 50.28 10.58C49.8267 10.92 49.27 11.09 48.61 11.09C48.0767 11.09 47.5967 10.9733 47.17 10.74C46.75 10.5 46.42 10.1633 46.18 9.73C45.9467 9.29667 45.83 8.79667 45.83 8.23C45.83 7.65667 45.9467 7.15333 46.18 6.72C46.4133 6.28667 46.74 5.95333 47.16 5.72C47.58 5.48667 48.0633 5.37 48.61 5.37C49.1367 5.37 49.6067 5.48333 50.02 5.71C50.44 5.93667 50.7633 6.26 50.99 6.68C51.2233 7.09333 51.34 7.57 51.34 8.11ZM49.89 7.71C49.8833 7.35 49.7533 7.06333 49.5 6.85C49.2467 6.63 48.9367 6.52 48.57 6.52C48.2233 6.52 47.93 6.62667 47.69 6.84C47.4567 7.04667 47.3133 7.33667 47.26 7.71H49.89ZM55.4319 5.38C56.0919 5.38 56.6252 5.59 57.0319 6.01C57.4385 6.42333 57.6419 7.00333 57.6419 7.75V11H56.2419V7.94C56.2419 7.5 56.1319 7.16333 55.9119 6.93C55.6919 6.69 55.3919 6.57 55.0119 6.57C54.6252 6.57 54.3185 6.69 54.0919 6.93C53.8719 7.16333 53.7619 7.5 53.7619 7.94V11H52.3619V5.46H53.7619V6.15C53.9485 5.91 54.1852 5.72333 54.4719 5.59C54.7652 5.45 55.0852 5.38 55.4319 5.38ZM60.2532 9.85H62.7232V11H58.6632V9.87L61.0832 6.61H58.6732V5.46H62.6932V6.59L60.2532 9.85ZM66.2672 11.09C65.7339 11.09 65.2539 10.9733 64.8272 10.74C64.4005 10.5 64.0639 10.1633 63.8172 9.73C63.5772 9.29667 63.4572 8.79667 63.4572 8.23C63.4572 7.66333 63.5805 7.16333 63.8272 6.73C64.0805 6.29667 64.4239 5.96333 64.8572 5.73C65.2905 5.49 65.7739 5.37 66.3072 5.37C66.8405 5.37 67.3239 5.49 67.7572 5.73C68.1905 5.96333 68.5305 6.29667 68.7772 6.73C69.0305 7.16333 69.1572 7.66333 69.1572 8.23C69.1572 8.79667 69.0272 9.29667 68.7672 9.73C68.5139 10.1633 68.1672 10.5 67.7272 10.74C67.2939 10.9733 66.8072 11.09 66.2672 11.09ZM66.2672 9.87C66.5205 9.87 66.7572 9.81 66.9772 9.69C67.2039 9.56333 67.3839 9.37667 67.5172 9.13C67.6505 8.88333 67.7172 8.58333 67.7172 8.23C67.7172 7.70333 67.5772 7.3 67.2972 7.02C67.0239 6.73333 66.6872 6.59 66.2872 6.59C65.8872 6.59 65.5505 6.73333 65.2772 7.02C65.0105 7.3 64.8772 7.70333 64.8772 8.23C64.8772 8.75667 65.0072 9.16333 65.2672 9.45C65.5339 9.73 65.8672 9.87 66.2672 9.87Z" fill="black"/>
<rect x="3" y="3" width="9" height="9" fill="#9440FF"/>
<circle cx="11.5" cy="5.5" r="3.5" fill="#E44FC3"/>
<path d="M7.66506 9L9.83013 12H5.5L7.66506 9Z" fill="#400E7E"/>
<path d="M3.5 7L7 12H0L3.5 7Z" fill="#400E7E"/>
</svg>
